# xmcd
#
# Track frame offsets:
#	150
#	8744
#	16513
#	27890
#	37468
#	46952
#	56907
#	65672
#	74736
#	86150
#	97520
#	106638
#	119492
#	128081
#	140068
#	148253
#	161807
#	171013
#	180818
#	191617
#
# Disc length: 2692 seconds
#
# Revision: 1
# Processed by: cddbd v1.5.2PL0 Copyright (c) Steve Scherf et al.
# Submitted via: audiograbber 1.83.01
#
DISCID=180a8214
DTITLE=Johnny Cash - The Absolutely Essential 3CD Collection
DYEAR=2015
DGENRE=Country
TTITLE0=Guess Things Happen That Way
TTITLE1=Hey, Good Lookin'
TTITLE2=Seasons Of My Heart
TTITLE3=Smiling Bill McCall
TTITLE4=Down The Street To 301
TTITLE5=The Story Of A Broken Heart
TTITLE6=Second Honeymoon
TTITLE7=Honky Tonk Girl
TTITLE8=Mean-Eyed Cat
TTITLE9=Oh, Lonesome Me
TTITLE10=Life Goes On
TTITLE11=Locomotive Man
TTITLE12=The Rebel-Johnny Yuma
TTITLE13=The Ballad Of Boot Hill
TTITLE14=Sugartime
TTITLE15=Tennessee Flat-Top Box
TTITLE16=Blue Train
TTITLE17=Born To Lose
TTITLE18=In The Jailhouse Now
TTITLE19=Bonanza!
EXTD=
EXTT0=
EXTT1=
EXTT2=
EXTT3=
EXTT4=
EXTT5=
EXTT6=
EXTT7=
EXTT8=
EXTT9=
EXTT10=
EXTT11=
EXTT12=
EXTT13=
EXTT14=
EXTT15=
EXTT16=
EXTT17=
EXTT18=
EXTT19=
PLAYORDER=
